<svg xmlns="http://www.w3.org/2000/svg" width="100" height="100" fill="#a7eccf" viewBox="-74 0 100 100" style="enable-background:new -74 0 100 100" xml:space="preserve"><path d="M21.2 71.7 9.1 59.5c-2-2-4.7-3.2-7.2-3.2-2.7 0-5.1 1.1-7.2 3.2l-7 7c-.3-.2-.7-.4-1-.5 0 0-.1 0-.1-.1l-.1-.1c-.9-.6-1.9-1.2-3.1-1.7-6.1-3.8-11.8-9.1-17.6-16.2-2.7-3.4-4.6-6.4-6.1-9.7 1.6-1.3 2.8-2.6 3.7-3.6l3.1-3.1c2.4-2.2 3.6-4.7 3.6-7.3 0-2.7-1.2-5.2-3.5-7.6l-9.5-9.5c-.9-.9-1.8-1.8-2.8-2.7-2-1.9-4.5-3-7.1-3-2.9 0-5.3 1-7.5 3.2l-7.3 7.3c-2.9 2.7-4.6 6.1-5 10.3v.1c-.2 5.2.6 10 2.8 16 3.5 9.4 8.8 18.2 16.7 27.9C-42.8 77.8-31.2 86.8-18.3 93l.3.1c3.8 1.7 11 4.9 19 5.4h1.1c5.3 0 9.3-1.7 12.6-5.3 1.2-1.4 2.5-2.7 3.6-3.9.9-.7 1.5-1.4 2.1-2.1l.8-.8.2-.2c4.2-4.6 4.2-10.2-.2-14.5zm-3.5 11.1-1 1-.1.2c-.5.6-.9 1.1-1.4 1.5l-.3.3c-1.2 1.2-2.6 2.6-4 4.2-2.3 2.5-4.9 3.6-8.8 3.6h-.8c-7-.5-13.4-3.3-17.2-5l-.2-.1C-28.4 82.6-39.5 74-49.2 63c-7.6-9.2-12.6-17.6-15.9-26.4-2-5.5-2.7-9.5-2.5-14 .3-2.9 1.4-5.2 3.4-7l7.4-7.4c1.2-1.2 2.4-1.7 3.9-1.7 1.3 0 2.5.6 3.6 1.6l.1.1c.9.8 1.8 1.7 2.7 2.6l9.5 9.5c1.8 1.8 2.1 3.2 2.1 4 0 .8-.2 2-2.1 3.7l-3.2 3.2c-1.1 1.2-2.4 2.5-4.1 3.9l-.2.2-.2.3c-.9 1.2-1 2.3-.5 3.9l.1.4.1.4c1.7 3.7 3.8 7.1 6.8 10.9 6.2 7.6 12.4 13.3 19 17.4l.3.2c.8.4 1.6.8 2.3 1.2.3.3.7.5 1 .6.4.2.7.3.9.5l.7.5h.2l.3.1c.6.2 1 .2 1.3.2 1 0 1.9-.4 2.8-1.3l7.5-7.5c1.2-1.2 2.3-1.7 3.7-1.7 1.5 0 2.9.9 3.7 1.7l12.2 12.2c2.4 2.4 2.5 4.9 0 7.5z"/></svg>