<svg xmlns="http://www.w3.org/2000/svg" height="48" viewBox="0 96 960 960" width="48"><path fill="#93c9b1" d="M305.783 964q-22.027 0-37.905-15.878T252 910.248V241.752q0-21.996 15.878-37.874Q283.756 188 305.783 188h348.434q22.027 0 37.905 15.878T708 241.752v668.496q0 21.996-15.878 37.874Q676.244 964 654.217 964H305.783ZM274 807v103q0 12 10 22t22 10h348q12 0 22-10t10-22V807H274Zm206.14 92q10.072 0 17.466-7.017Q505 884.967 505 874.377q0-10.59-7.534-17.983Q489.932 849 479.86 849q-10.072 0-17.466 7.529Q455 864.058 455 874.123q0 11.09 7.534 17.983Q470.068 899 480.14 899ZM274 785h412V295H274v490Zm0-512h412v-31q0-12-10-22t-22-10H306q-12 0-22 10t-10 22v31Zm0 534v135-135Zm0-534v-63 63Z"/></svg>