<svg width="0" height="0" class="hidden">
  <symbol xmlns="http://www.w3.org/2000/svg" stroke-width="3" stroke="#ffffff" fill="none" viewBox="0 0 64 64" id="telegram">
    <path fill="#93c9b1" d="M26.67,38.57l-.82,11.54A2.88,2.88,0,0,0,28.14,49l5.5-5.26,11.42,8.35c2.08,1.17,3.55.56,4.12-1.92l7.49-35.12h0c.66-3.09-1.08-4.33-3.16-3.55l-44,16.85C6.47,29.55,6.54,31.23,9,32l11.26,3.5L45.59,20.71c1.23-.83,2.36-.37,1.44.44Z" stroke-linecap="round"></path>
  </symbol>
  <symbol fill="#000000" xmlns="http://www.w3.org/2000/svg" viewBox="0 0 24 24" id="instagram">
    <path fill-rule="evenodd" fill="#93c9b1" d="M8,2 L16,2 C19.3137085,2 22,4.6862915 22,8 L22,16 C22,19.3137085 19.3137085,22 16,22 L8,22 C4.6862915,22 2,19.3137085 2,16 L2,8 C2,4.6862915 4.6862915,2 8,2 Z M8,4 C5.790861,4 4,5.790861 4,8 L4,16 C4,18.209139 5.790861,20 8,20 L16,20 C18.209139,20 20,18.209139 20,16 L20,8 C20,5.790861 18.209139,4 16,4 L8,4 Z M12,17 C9.23857625,17 7,14.7614237 7,12 C7,9.23857625 9.23857625,7 12,7 C14.7614237,7 17,9.23857625 17,12 C17,14.7614237 14.7614237,17 12,17 Z M12,15 C13.6568542,15 15,13.6568542 15,12 C15,10.3431458 13.6568542,9 12,9 C10.3431458,9 9,10.3431458 9,12 C9,13.6568542 10.3431458,15 12,15 Z M17,8 C16.4477153,8 16,7.55228475 16,7 C16,6.44771525 16.4477153,6 17,6 C17.5522847,6 18,6.44771525 18,7 C18,7.55228475 17.5522847,8 17,8 Z"></path>
  </symbol>
  <symbol xmlns="http://www.w3.org/2000/svg" viewBox="0 96 960 960" id="mail">
    <path d="M186 844q-22.775 0-38.387-15.612Q132 812.775 132 790V362q0-22.775 15.613-38.388Q163.225 308 186 308h588q22.775 0 38.388 15.612Q828 339.225 828 362v428q0 22.775-15.612 38.388Q796.775 844 774 844H186Zm294-281L154 344v446q0 14 9 23t23 9h588q14 0 23-9t9-23V344L480 563Zm0-28 309-205H172l308 205ZM154 344v-14 460q0 14 9 23t23 9h-32V344Z"></path>
  </symbol>
  <symbol xmlns="http://www.w3.org/2000/svg" viewBox="0 96 960 960" id="list">
    <path fill="#7ac143" d="M149.825 776Q137 776 128.5 767.325q-8.5-8.676-8.5-21.5 0-12.825 8.675-21.325 8.676-8.5 21.5-8.5 12.825 0 21.325 8.675 8.5 8.676 8.5 21.5 0 12.825-8.675 21.325-8.676 8.5-21.5 8.5Zm0-170Q137 606 128.5 597.325q-8.5-8.676-8.5-21.5 0-12.825 8.675-21.325 8.676-8.5 21.5-8.5 12.825 0 21.325 8.675 8.5 8.676 8.5 21.5 0 12.825-8.675 21.325-8.676 8.5-21.5 8.5Zm0-170Q137 436 128.5 427.325q-8.5-8.676-8.5-21.5 0-12.825 8.675-21.325 8.676-8.5 21.5-8.5 12.825 0 21.325 8.675 8.5 8.676 8.5 21.5 0 12.825-8.675 21.325-8.676 8.5-21.5 8.5ZM290 776v-60h550v60H290Zm0-170v-60h550v60H290Zm0-170v-60h550v60H290Z"></path>
  </symbol>
  <symbol xmlns="http://www.w3.org/2000/svg" viewBox="0 96 960 960" id="phone">
    <path fill="#93c9b1" d="M305.783 964q-22.027 0-37.905-15.878T252 910.248V241.752q0-21.996 15.878-37.874Q283.756 188 305.783 188h348.434q22.027 0 37.905 15.878T708 241.752v668.496q0 21.996-15.878 37.874Q676.244 964 654.217 964H305.783ZM274 807v103q0 12 10 22t22 10h348q12 0 22-10t10-22V807H274Zm206.14 92q10.072 0 17.466-7.017Q505 884.967 505 874.377q0-10.59-7.534-17.983Q489.932 849 479.86 849q-10.072 0-17.466 7.529Q455 864.058 455 874.123q0 11.09 7.534 17.983Q470.068 899 480.14 899ZM274 785h412V295H274v490Zm0-512h412v-31q0-12-10-22t-22-10H306q-12 0-22 10t-10 22v31Zm0 534v135-135Zm0-534v-63 63Z"></path>
  </symbol>
</svg>

